<svg xmlns="http://www.w3.org/2000/svg"  viewBox="0 0 100 100" width="300px" height="300px"><path d="M90.281,11.772C88.82,9.41,86.216,8,83.314,8H72.388c-3.698,0-6.582,1.814-8.559,5.367c0,0-7.294,12.936-13.854,24.57 c-1.993-3.476-4.799-8.37-4.799-8.37c-0.229-0.401-0.461-0.805-0.713-1.191l0.022-0.013C41.868,23.697,37.91,23,35.784,23H24.892 c-2.94,0-5.564,1.41-7.018,3.768c-1.485,2.408-1.547,5.355-0.169,8.086l0.063,0.126l5.594,9.682l-9.793,17.284l-0.115,0.215 c-1.313,2.607-1.21,5.602,0.277,8.014C15.213,72.57,17.811,74,20.683,74h10.893c2.57,0,6.157-0.944,8.629-5.405 c0,0,0.582-1.03,1.483-2.623C45.867,73.64,55.12,90.617,55.12,90.617C57.743,95.301,61.692,96,63.812,96h10.805 c2.899,0,5.501-1.408,6.95-3.75c1.497-2.399,1.587-5.422,0.243-8.085L68.199,59.292l22.283-39.401l0.054-0.108 C91.855,17.163,91.761,14.169,90.281,11.772z" opacity=".35"/><path fill="#f2f2f2" d="M88.281,9.772C86.82,7.41,84.216,6,81.314,6H70.388c-3.698,0-6.582,1.814-8.559,5.367 c0,0-7.294,12.936-13.854,24.57c-1.993-3.476-4.799-8.37-4.799-8.37c-0.229-0.401-0.461-0.805-0.713-1.191l0.022-0.013 C39.868,21.697,35.91,21,33.784,21H22.892c-2.94,0-5.564,1.41-7.018,3.768c-1.485,2.408-1.547,5.355-0.169,8.086l0.063,0.126 l5.594,9.682l-9.793,17.284l-0.115,0.215c-1.313,2.607-1.21,5.602,0.277,8.014C13.213,70.57,15.811,72,18.683,72h10.893 c2.57,0,6.157-0.944,8.629-5.405c0,0,0.582-1.03,1.483-2.623C43.867,71.64,53.12,88.617,53.12,88.617 C55.743,93.301,59.692,94,61.812,94h10.805c2.899,0,5.501-1.408,6.95-3.75c1.497-2.399,1.587-5.422,0.243-8.085L66.199,57.292 l22.283-39.401l0.054-0.108C89.855,15.163,89.761,12.169,88.281,9.772z"/><path fill="#146164" d="M22.891,27.5c-0.656,0-1.208,0.23-1.485,0.681c-0.287,0.465-0.243,1.064,0.062,1.671l7.365,12.749 c0,0.022,0,0.04,0,0.062L17.259,63.086c-0.302,0.602-0.287,1.206,0,1.671c0.277,0.448,0.767,0.743,1.423,0.743h10.893 c1.629,0,2.414-1.099,2.971-2.104c0,0,11.318-20.017,11.759-20.795c-0.045-0.072-7.489-13.059-7.489-13.059 c-0.542-0.965-1.362-2.042-3.033-2.042H22.891z"/><path fill="#40396e" d="M29.575,67H18.683c-1.144,0-2.127-0.53-2.698-1.454c-0.566-0.918-0.591-2.089-0.064-3.134 l11.203-19.773l-6.954-12.037c-0.592-1.173-0.591-2.314-0.039-3.209C20.675,26.508,21.682,26,22.892,26h10.893 c2.765,0,3.95,2.114,4.34,2.809c0-0.001,7.31,12.75,7.474,13.033c0.27,0.461,0.275,1.035,0.012,1.499 c-0.44,0.777-11.758,20.794-11.758,20.794C33.422,64.91,32.265,67,29.575,67z M22.734,29.011c0.017,0.041,0.039,0.099,0.074,0.167 l7.323,12.672c0.132,0.228,0.201,0.487,0.201,0.75c0,0.259-0.067,0.576-0.195,0.802L18.564,63.826 c-0.027,0.058-0.029,0.134-0.024,0.151C18.555,64,18.678,64,18.683,64h10.893c0.697,0,1.101-0.323,1.658-1.331 c0.006-0.01,9.218-16.302,11.345-20.062c-0.692-1.207-2.472-4.308-7.063-12.318C34.979,29.334,34.528,29,33.784,29H22.892 C22.828,29,22.776,29.004,22.734,29.011z M38.124,28.809h0.011H38.124z"/><g><path fill="#739f4d" d="M70.387,12.5c-1.615,0-2.316,1.018-2.896,2.06c0,0-23.303,41.325-24.07,42.682 c0.039,0.074,15.37,28.198,15.37,28.198c0.536,0.959,1.364,2.06,3.021,2.06h10.805c0.651,0,1.16-0.246,1.436-0.691 c0.288-0.462,0.28-1.072-0.022-1.672L58.782,57.277c-0.015-0.022-0.015-0.049,0-0.071L82.731,14.86 c0.3-0.597,0.307-1.207,0.022-1.669c-0.275-0.445-0.787-0.691-1.438-0.691H70.387z"/><path fill="#40396e" d="M72.617,89H61.812c-2.749,0-3.939-2.128-4.331-2.828c-4.618-8.473-15.346-28.154-15.385-28.228 c-0.239-0.452-0.232-0.995,0.02-1.44c0.767-1.357,24.068-42.681,24.068-42.681C66.691,12.912,67.756,11,70.388,11h10.927 c1.174,0,2.163,0.511,2.714,1.402c0.559,0.905,0.574,2.076,0.042,3.133L60.478,57.252l14.869,27.165 c0.56,1.108,0.542,2.282-0.021,3.186C74.777,88.489,73.789,89,72.617,89z M45.137,57.255c2.394,4.392,14.972,27.467,14.972,27.467 C60.634,85.662,61.082,86,61.812,86h10.805c0.059,0,0.105-0.005,0.14-0.011c-0.009-0.041-0.026-0.1-0.065-0.177L57.466,57.997 c-0.249-0.463-0.246-1.071,0.01-1.53l23.949-42.346c0.02-0.041,0.029-0.079,0.033-0.11C81.424,14.005,81.376,14,81.314,14H70.388 c-0.689,0-1.016,0.265-1.586,1.29C68.798,15.296,48.369,51.524,45.137,57.255z M81.526,14.031h0.01H81.526z"/></g></svg>